<?xml version="1.0" encoding="iso-8859-1"?>
<!-- Generator: Adobe Illustrator 18.0.0, SVG Export Plug-In . SVG Version: 6.00 Build 0)  -->
<!DOCTYPE svg PUBLIC "-//W3C//DTD SVG 1.1//EN" "http://www.w3.org/Graphics/SVG/1.1/DTD/svg11.dtd">
<svg version="1.1" id="Capa_1" xmlns="http://www.w3.org/2000/svg" xmlns:xlink="http://www.w3.org/1999/xlink" x="0px" y="0px"
	 viewBox="0 0 297 297" style="enable-background:new 0 0 297 297;" xml:space="preserve">
<g>
	<path d="M177.216,2.883c-3.836,1.176-7.096,2.543-9.473,3.774L181.31,33.79c0.968-0.755,1.974-1.461,3.023-2.108L177.216,2.883z"/>
	<path d="M224.836,4.548l-6.967,26.318c1.123,0.62,2.204,1.306,3.244,2.047l12.574-25.146C230.645,6.524,227.696,5.46,224.836,4.548
		z"/>
	<path d="M186.936,0.7l7.445,26.874c0.407-0.093,0.816-0.179,1.228-0.257V0C192.51,0.065,189.62,0.316,186.936,0.7z"/>
	<path d="M214.503,1.829c-2.816-0.584-5.526-1.016-8.127-1.312v26.538c0.44,0.061,0.876,0.131,1.311,0.209L214.503,1.829z"/>
	<path d="M57.67,29.963c-9.649,0-18.556,4.388-24.436,12.038c-4.903,6.378-7.062,14.206-6.21,22.037l79.507-34.075H57.67z"/>
	<polygon points="37.033,102.117 169.592,51.539 160.135,29.963 150.269,29.963 31.158,81.011 	"/>
	<path d="M201.8,43.961c-8.906,0-16.151,7.245-16.151,16.151s7.245,16.151,16.151,16.151c8.906,0,16.151-7.245,16.151-16.151
		S210.706,43.961,201.8,43.961z"/>
	<path d="M174.831,79.751c-1.889-2.588-3.415-5.455-4.504-8.529l-10.962,4.111L174.831,79.751z"/>
	<path d="M233.481,70.602c-3.082,9.286-10.135,16.772-19.141,20.437l45.382,12.966l6.027-22.648L233.481,70.602z"/>
	<path d="M166.266,225.934c19.421,0,34.852,12.539,48.47,23.911c16.515-25.673,28.032-58.365,30.985-89.023L148.5,128.415
		l-97.222,32.408c2.952,30.658,14.469,63.35,30.984,89.024c13.618-11.373,29.05-23.913,48.472-23.913
		c6.837,0,13.075,2.614,17.766,6.896C153.192,228.548,159.43,225.934,166.266,225.934z M184.033,190.401H201.8
		c4.757,0,8.614,3.857,8.614,8.614s-3.857,8.614-8.614,8.614h-17.767c-4.757,0-8.614-3.857-8.614-8.614
		S179.276,190.401,184.033,190.401z M112.967,207.629H95.2c-4.757,0-8.614-3.857-8.614-8.614s3.857-8.614,8.614-8.614h17.767
		c4.757,0,8.614,3.857,8.614,8.614S117.724,207.629,112.967,207.629z"/>
	<path d="M221.615,276.772c-6.032-3.766-11.733-8.532-17.003-12.937c-12.161-10.163-24.736-20.673-38.345-20.673
		c-3.997,0-7.404,2.576-8.649,6.155c18.386,18.317,36.848,27.762,54.927,28.086C215.739,277.472,218.767,277.222,221.615,276.772z"
		/>
	<path d="M148.5,264.477c-10.347,9.808-20.869,17.24-31.504,22.275C126.998,293.257,137.621,297,148.5,297
		c10.879,0,21.502-3.743,31.503-10.248C169.369,281.717,158.847,274.285,148.5,264.477z"/>
	<path d="M41.201,118.496l6.668,25.302l97.906-32.636c1.769-0.589,3.68-0.589,5.449,0l97.906,32.636l6.159-23.141l-122.96-35.033
		L41.201,118.496z"/>
	<path d="M130.733,243.162c-13.609,0-26.184,10.51-38.345,20.673c-5.27,4.405-10.973,9.171-17.004,12.937
		c2.849,0.45,5.878,0.696,9.07,0.631c18.079-0.324,36.542-9.769,54.927-28.086C138.137,245.738,134.73,243.162,130.733,243.162z"/>
	<path d="M241.795,30.072l-8.928,17.857c0.609,1.548,1.105,3.15,1.479,4.8l35.565,11.855c1.015-8.012-1.128-16.056-6.145-22.582
		C258.391,35.008,250.483,30.753,241.795,30.072z"/>
</g>
<g>
</g>
<g>
</g>
<g>
</g>
<g>
</g>
<g>
</g>
<g>
</g>
<g>
</g>
<g>
</g>
<g>
</g>
<g>
</g>
<g>
</g>
<g>
</g>
<g>
</g>
<g>
</g>
<g>
</g>
</svg>
