<?xml version="1.0" encoding="iso-8859-1"?>
<!-- Generator: Adobe Illustrator 18.1.1, SVG Export Plug-In . SVG Version: 6.00 Build 0)  -->
<svg version="1.1" id="Capa_1" xmlns="http://www.w3.org/2000/svg" xmlns:xlink="http://www.w3.org/1999/xlink" x="0px" y="0px"
	 viewBox="0 0 323.301 323.301" style="enable-background:new 0 0 323.301 323.301;" xml:space="preserve">
<g>
	<path style="fill:#010002;" d="M23.096,293.142c4.34-0.005,8.681-0.038,13.016-0.049c2.475,11.346,12.352,18.085,26.146,19.586
		c8.148,0.881,16.758-0.8,24.764-2.127c4.161-0.685,8.289-1.55,12.423-2.393c1.746-0.354,3.503-0.712,5.26-1.05
		c0.218-0.044,5.2-0.783,1.789-0.375c6.918-0.827,14.174-5.564,13.598-13.598c-0.027-0.343-0.071-0.68-0.098-1.023
		c32.047-0.713,64.067-1.925,96.048-3.84c8.3,17.862,34.424,19.722,51.187,16.975c14.963-2.453,28.675-10.612,32.732-23.834
		c3.193-0.337,6.396-0.609,9.589-0.968c7.212-0.805,13.793-5.57,13.598-13.598c-1.458-59.264,3.04-118.61-3.622-177.678
		c-0.631-5.629-3.633-12.015-9.981-13.114c-19.423-3.361-38.868-4.824-58.334-5.303c-12.368-46.966-41.631-62.702-91.507-60.107
		c-24.748,1.289-59.705-1.071-81.831,12.39C57.835,35.227,54.876,53.241,54.691,73.599c-12.961,0.288-25.917,0.854-38.857,1.974
		c-1.659,0.141-3.106,0.582-4.449,1.148c-5.004,1.534-9.11,5.662-9.149,12.45C1.905,153.44-5.976,220.09,9.977,283.156
		C11.462,289.003,17.145,293.147,23.096,293.142z M269.844,98.559c-0.033,0.272-0.109,0.538-0.12,0.81
		c-1.159,18.471,12.042,30.453,25.77,40.293c0.049,0.033,0.103,0.049,0.147,0.082c0.794,27.843,0.267,55.723,0.065,83.609
		c-1.512,0.664-2.997,1.632-4.384,3.057c-8.523,8.762-14.898,19.031-18.836,30.551c-6.739,0.598-13.478,1.093-20.228,1.621
		c-5.026-53.526-3.166-107.46-8.333-160.98C252.57,97.673,261.213,97.972,269.844,98.559z M120.814,264.908
		c-9.323-53.21-9.943-110.098-10.182-164.156c15.675,0.092,31.356,0.103,47.026-0.408c19.695-0.647,39.411-1.789,59.112-2.393
		c5.189,54.053,3.242,108.526,8.49,162.568C190.478,262.743,155.657,264.119,120.814,264.908z M108.908,42.009
		c18.64-3.965,38.46-3.519,57.415-4.509c32.352-1.692,47.804,7.631,56.501,33.178c-18.373,0.337-36.779,1.235-55.228,2.067
		c-28.484,1.289-56.996,0.664-85.502,0.631C82.866,57.413,87.375,46.595,108.908,42.009z M28.23,135.191
		c11.558-7.473,22.501-16.089,26.108-30.165c0.375-1.479,0.451-2.861,0.402-4.188c3.671-0.082,7.343-0.131,11.014-0.169
		c1.958,0.364,3.987,0.337,5.934-0.049c3.922-0.022,7.832-0.022,11.754-0.011c0.283,54.325,1.137,111.077,9.932,164.836
		c-10.236,0.147-20.478,0.256-30.709,0.332c-0.071-0.245-0.082-0.495-0.169-0.734c-5.749-15.327-18.395-24.759-33.222-29.246
		C25.777,202.641,27.006,168.75,28.23,135.191z"/>
</g>
<g>
</g>
<g>
</g>
<g>
</g>
<g>
</g>
<g>
</g>
<g>
</g>
<g>
</g>
<g>
</g>
<g>
</g>
<g>
</g>
<g>
</g>
<g>
</g>
<g>
</g>
<g>
</g>
<g>
</g>
</svg>
