<?xml version="1.0" ?><svg width="128px" height="128px" viewBox="0 0 128 128" id="Layer_1" style="enable-background:new 0 0 128 128;" version="1.1" xml:space="preserve" xmlns="http://www.w3.org/2000/svg" xmlns:xlink="http://www.w3.org/1999/xlink"><path d="M103.68,103.474C113.76,93.342,120,79.387,120,64c0-30.878-25.121-56-56-56c-15.387,0-29.342,6.24-39.473,16.319  c-0.041,0.03-0.088,0.046-0.124,0.083s-0.053,0.084-0.083,0.124C14.24,34.658,8,48.613,8,64c0,30.878,25.121,56,56,56  c15.387,0,29.342-6.24,39.473-16.319c0.041-0.03,0.088-0.046,0.124-0.083S103.65,103.514,103.68,103.474z M118,64  c0,14.529-5.778,27.726-15.144,37.442L87.287,85.874c8.375-2.124,14.462-8.388,14.462-15.769c0-9.097-9.295-16.498-20.72-16.498  c-0.211,0-0.469-0.003-0.753-0.007c-0.863-0.012-1.879-0.025-2.706,0.031c-3.786-8.794-13.05-14.222-24.382-14.222  c-3.772,0-7.363,0.622-10.626,1.74L26.558,25.144C36.274,15.778,49.471,10,64,10C93.775,10,118,34.224,118,64z M65.356,60.992  c-0.057,0.828-0.265,1.619-0.577,2.373L51.006,49.591c0.158,0.007,0.313,0.005,0.472,0.016c3.956,0.274,7.587,1.646,10.223,3.862  C64.246,55.611,65.545,58.282,65.356,60.992z M63.753,65.167c-2.544,3.434-7.806,5.59-13.713,5.184  c-3.956-0.274-7.587-1.646-10.223-3.862c-2.546-2.141-3.845-4.812-3.656-7.521c0.341-4.931,5.501-8.722,12.074-9.318L63.753,65.167z   M34.165,58.829c-0.232,3.364,1.317,6.628,4.365,9.191c2.957,2.487,6.996,4.023,11.371,4.327c0.522,0.036,1.04,0.054,1.554,0.054  c5.822,0,10.944-2.29,13.72-5.811l3.841,3.841c0.836,3.523,4.055,6.818,8.547,8.547l5.573,5.573  c-0.693,0.061-1.394,0.099-2.107,0.099c-4.453,0-8.749-1.229-12.096-3.462c-1.848-1.233-4.098-1.868-6.524-1.868  c-0.967,0-1.963,0.101-2.972,0.306c-2.02,0.409-4.122,0.616-6.249,0.616c-13.751,0-24.938-8.71-24.938-19.416  c0-7.59,5.625-14.172,13.797-17.363l4.407,4.407C39.705,49.023,34.546,53.344,34.165,58.829z M70.949,67.351  c0.496-1.945,2.077-3.515,4.451-4.419c1.385-0.527,2.937-0.793,4.56-0.793c1.303,0,2.652,0.171,3.998,0.514  c6.113,1.561,10.226,6.207,9.167,10.357c-0.496,1.945-2.077,3.515-4.452,4.419c-2.494,0.951-5.533,1.05-8.557,0.279  c-0.496-0.126-0.972-0.28-1.44-0.445l-7.83-7.83C70.753,68.736,70.774,68.036,70.949,67.351z M81.417,80.003  c0.906,0.139,1.808,0.217,2.693,0.217c1.868,0,3.664-0.309,5.275-0.922c2.999-1.143,5.016-3.201,5.677-5.794  c1.332-5.219-3.428-10.956-10.61-12.789c-3.42-0.874-6.888-0.749-9.764,0.347c-2.999,1.143-5.016,3.201-5.677,5.794  c-0.053,0.208-0.08,0.418-0.114,0.627l-2.62-2.62c0.602-1.16,0.983-2.41,1.075-3.733c0.232-3.364-1.317-6.628-4.365-9.191  c-2.957-2.487-6.996-4.023-11.371-4.327c-0.883-0.061-1.749-0.054-2.602-0.013l-4.865-4.865c2.805-0.853,5.852-1.326,9.04-1.326  c10.793,0,19.534,5.236,22.813,13.664c0.175,0.45,0.645,0.708,1.119,0.62c0.669-0.128,2.15-0.108,3.128-0.094  c0.295,0.004,0.563,0.008,0.781,0.008c10.322,0,18.72,6.503,18.72,14.498c0,6.792-6.031,12.494-14.144,14.087L81.417,80.003z M10,64  c0-14.529,5.778-27.726,15.144-37.442l15.374,15.375c-8.482,3.61-14.268,10.723-14.268,18.892c0,11.809,12.084,21.416,26.938,21.416  c2.26,0,4.496-0.221,6.646-0.656c3.016-0.611,5.852-0.161,7.99,1.267c3.672,2.449,8.361,3.798,13.205,3.798  c1.335,0,2.636-0.11,3.901-0.304l16.511,16.511C91.726,112.222,78.529,118,64,118C34.225,118,10,93.776,10,64z"/></svg>