<?xml version="1.0" standalone="no"?>
<!DOCTYPE svg PUBLIC "-//W3C//DTD SVG 20010904//EN"
 "http://www.w3.org/TR/2001/REC-SVG-20010904/DTD/svg10.dtd">
<svg version="1.0" xmlns="http://www.w3.org/2000/svg"
 width="225.000000pt" height="225.000000pt" viewBox="0 0 225.000000 225.000000"
 preserveAspectRatio="xMidYMid meet">

<g transform="translate(0.000000,225.000000) scale(0.100000,-0.100000)"
fill="#000000" stroke="none">
<path d="M1032 2147 c-6 -7 -17 -45 -24 -86 -12 -67 -16 -74 -45 -86 -30 -13
-34 -11 -92 31 -33 24 -69 44 -79 44 -10 0 -47 -29 -80 -64 -70 -73 -70 -70
-9 -157 38 -55 39 -57 23 -87 -14 -27 -23 -31 -88 -42 -43 -7 -78 -18 -85 -28
-18 -22 -17 -176 0 -190 7 -6 45 -17 86 -24 67 -12 74 -16 86 -45 13 -30 11
-34 -31 -92 -24 -33 -44 -69 -44 -79 0 -10 29 -47 64 -80 73 -70 70 -70 156
-10 51 36 57 37 87 26 30 -11 33 -16 44 -86 7 -40 18 -80 26 -88 20 -20 176
-20 192 0 7 8 17 47 24 86 11 66 14 73 44 85 30 13 34 12 94 -31 35 -24 70
-44 79 -44 25 0 143 127 136 146 -3 9 -24 42 -46 73 -37 53 -39 59 -28 88 11
30 16 33 86 44 40 7 80 18 88 26 20 20 20 176 0 192 -8 7 -47 17 -86 24 -66
11 -73 14 -85 44 -13 30 -12 34 31 94 24 35 44 70 44 79 0 25 -127 143 -145
136 -9 -3 -42 -23 -74 -45 -54 -37 -61 -39 -89 -29 -28 11 -31 17 -42 90 -9
57 -17 81 -31 88 -27 15 -174 13 -187 -3z m133 -114 c13 -82 21 -106 35 -113
62 -30 114 -50 130 -50 11 0 42 16 69 35 56 40 62 42 84 17 15 -17 14 -22 -23
-72 -22 -30 -39 -62 -40 -70 0 -20 45 -128 59 -143 7 -7 40 -16 74 -22 60 -10
62 -11 65 -42 l3 -31 -70 -12 c-78 -13 -76 -11 -108 -90 -30 -72 -29 -81 12
-139 40 -56 42 -62 17 -84 -17 -15 -22 -14 -72 23 -30 22 -62 39 -70 40 -20 0
-128 -45 -143 -59 -7 -7 -16 -40 -22 -74 -10 -60 -11 -62 -42 -65 l-31 -3 -12
70 c-13 78 -11 76 -90 108 -73 30 -84 29 -140 -12 -55 -41 -61 -42 -84 -16
-17 19 -16 22 23 74 47 61 49 73 21 127 -11 22 -20 45 -20 53 0 24 -33 44 -84
52 -69 10 -76 14 -76 45 0 30 1 31 98 45 41 7 44 9 72 72 17 36 30 75 30 86 0
10 -16 41 -35 67 -41 55 -42 61 -16 84 19 17 22 16 74 -23 61 -47 73 -49 127
-21 22 11 46 20 54 20 21 0 42 36 50 85 12 69 15 75 46 75 26 0 30 -4 35 -37z"/>
<path d="M1070 1791 c-116 -37 -179 -129 -168 -243 14 -146 179 -240 314 -179
55 25 110 92 124 152 26 106 -23 204 -126 257 -29 15 -114 23 -144 13z m147
-124 c91 -90 30 -227 -101 -227 -43 0 -53 4 -87 39 -35 34 -39 44 -39 87 0 92
60 148 149 140 33 -3 52 -12 78 -39z"/>
<path d="M545 980 c-94 -19 -442 -174 -450 -201 -8 -24 11 -59 33 -59 9 0 46
14 82 31 36 17 123 56 195 86 119 51 138 56 221 61 130 6 186 -12 266 -87 35
-32 77 -65 93 -74 56 -28 158 -49 283 -57 139 -9 172 -22 172 -69 0 -16 -9
-36 -21 -47 -19 -17 -41 -19 -198 -22 -148 -3 -195 0 -297 19 -67 12 -129 19
-139 16 -11 -5 -15 -16 -13 -39 4 -38 23 -45 179 -72 108 -19 393 -22 454 -5
22 6 144 79 270 162 246 162 324 200 369 179 35 -16 33 -45 -6 -87 -40 -41
-646 -436 -785 -511 -40 -21 -58 -25 -105 -22 -49 4 -93 22 -305 126 -310 153
-309 153 -475 40 -59 -40 -73 -69 -46 -96 20 -20 35 -15 116 37 42 27 88 52
102 56 20 5 77 -20 261 -113 363 -185 374 -185 663 -4 251 156 618 403 647
434 103 113 14 262 -137 228 -39 -9 -47 -7 -80 15 -48 33 -73 38 -141 33 -47
-4 -62 -1 -90 18 -19 13 -53 26 -76 29 -75 11 -133 -10 -296 -111 l-153 -95
-56 16 c-42 13 -71 31 -116 73 -67 61 -135 97 -216 112 -61 11 -147 11 -205 0z
m1063 -88 c9 -6 -20 -29 -91 -73 -102 -63 -105 -64 -165 -61 -34 2 -60 7 -57
11 8 13 174 113 203 121 36 11 94 12 110 2z m226 -50 c8 -5 -286 -202 -302
-202 -7 0 -35 61 -29 66 13 12 207 130 231 140 28 12 76 10 100 -4z"/>
</g>
</svg>
