<?xml version="1.0" encoding="iso-8859-1"?>
<!-- Generator: Adobe Illustrator 17.1.0, SVG Export Plug-In . SVG Version: 6.00 Build 0)  -->
<!DOCTYPE svg PUBLIC "-//W3C//DTD SVG 1.1//EN" "http://www.w3.org/Graphics/SVG/1.1/DTD/svg11.dtd">
<svg version="1.1" id="Capa_1" xmlns="http://www.w3.org/2000/svg" xmlns:xlink="http://www.w3.org/1999/xlink" x="0px" y="0px"
	 viewBox="0 0 511 511" style="enable-background:new 0 0 511 511;" xml:space="preserve">
<g>
	<path d="M463.5,448h-27.362c-3.953,0-7.354-2.686-8.269-6.531l-32.682-137.265C391.793,289.953,379.192,280,364.543,280H351.5
		h-24.525c0.005-0.167,0.025-0.331,0.025-0.5v-26.745c0-10.551-4.109-20.47-11.569-27.931l-21.255-21.255
		c-7.461-7.46-17.38-11.569-27.931-11.569H175V71.5c0-17.369-14.131-31.5-31.5-31.5H143v-8.5C143,14.131,128.869,0,111.5,0h-32
		C75.358,0,72,3.358,72,7.5s3.358,7.5,7.5,7.5h32c9.098,0,16.5,7.402,16.5,16.5V192h-0.5c-8.547,0-15.5,6.953-15.5,15.5v48
		c0,0.109,0.012,0.215,0.016,0.323C69.21,278.622,40,323.711,40,375.5C40,450.215,100.785,511,175.5,511
		c72.198,0,131.383-56.76,135.289-128H344v49.723c-18.205,3.515-32,19.561-32,38.777c0,21.78,17.72,39.5,39.5,39.5
		s39.5-17.72,39.5-39.5c0-19.216-13.795-35.262-32-38.777V295h5.543c7.673,0,14.274,5.213,16.051,12.678l32.682,137.265
		C415.808,455.575,425.208,463,436.138,463H463.5c4.142,0,7.5-3.358,7.5-7.5S467.642,448,463.5,448z M143,55h0.5
		c9.098,0,16.5,7.402,16.5,16.5V192h-17V55z M127,207.5c0-0.276,0.224-0.5,0.5-0.5h138.745c6.544,0,12.696,2.548,17.324,7.176
		l21.255,21.255c4.627,4.627,7.176,10.78,7.176,17.324V279.5c0,0.276-0.224,0.5-0.5,0.5h-39.97c-24.556-24.691-58.538-40-96.03-40
		c-17.083,0-33.434,3.186-48.5,8.982V207.5z M175.5,496C109.056,496,55,441.944,55,375.5S109.056,255,175.5,255
		S296,309.056,296,375.5S241.944,496,175.5,496z M310.789,368c-1.493-27.239-11.069-52.358-26.364-73H311.5H344v73H310.789z
		 M376,471.5c0,13.51-10.991,24.5-24.5,24.5S327,485.01,327,471.5c0-10.894,7.149-20.145,17-23.321V471.5c0,4.142,3.358,7.5,7.5,7.5
		s7.5-3.358,7.5-7.5v-23.321C368.851,451.355,376,460.606,376,471.5z"/>
	<path d="M278.466,332.733c-5.537-13.281-13.571-25.268-23.514-35.376c-0.189-0.242-0.388-0.477-0.61-0.699
		c-0.222-0.222-0.458-0.422-0.7-0.611c-10.108-9.943-22.097-17.978-35.38-23.515c-0.032-0.014-0.062-0.031-0.094-0.045
		c-0.039-0.016-0.078-0.026-0.117-0.042C204.933,267.008,190.562,264,175.5,264c-15.061,0-29.431,3.008-42.55,8.445
		c-0.04,0.016-0.08,0.026-0.12,0.043c-0.033,0.014-0.064,0.032-0.097,0.046c-13.282,5.537-25.269,13.572-35.376,23.514
		c-0.241,0.188-0.477,0.388-0.699,0.61c-0.222,0.222-0.422,0.458-0.61,0.699c-9.942,10.107-17.977,22.095-23.514,35.376
		c-0.014,0.033-0.032,0.064-0.046,0.097c-0.016,0.04-0.027,0.08-0.043,0.12C67.008,346.069,64,360.439,64,375.5
		s3.008,29.431,8.445,42.55c0.016,0.04,0.026,0.08,0.043,0.12c0.01,0.023,0.023,0.043,0.033,0.066
		c5.537,13.294,13.577,25.292,23.527,35.408c0.188,0.242,0.388,0.477,0.61,0.699c0.222,0.222,0.458,0.422,0.699,0.61
		c10.107,9.943,22.095,17.977,35.376,23.514c0.033,0.014,0.064,0.032,0.097,0.046c0.041,0.017,0.082,0.028,0.123,0.044
		C146.071,483.992,160.44,487,175.5,487c15.061,0,29.432-3.008,42.55-8.445c0.039-0.016,0.079-0.026,0.119-0.042
		c0.032-0.013,0.062-0.031,0.094-0.045c13.283-5.537,25.272-13.572,35.38-23.516c0.241-0.188,0.477-0.388,0.699-0.61
		c0.222-0.222,0.422-0.458,0.61-0.699c9.95-10.115,17.989-22.114,23.527-35.408c0.01-0.023,0.024-0.043,0.033-0.066
		c0.016-0.04,0.027-0.08,0.043-0.12c5.437-13.119,8.445-27.489,8.445-42.55s-3.008-29.431-8.445-42.55
		c-0.016-0.04-0.026-0.08-0.043-0.12C278.499,332.797,278.481,332.766,278.466,332.733z M267.256,405.389L213.205,383h58.506
		C271.112,390.754,269.586,398.252,267.256,405.389z M248.799,438.193l-41.335-41.334l54.039,22.383
		C258.018,426.067,253.741,432.423,248.799,438.193z M219.241,461.503l-22.384-54.039l41.335,41.334
		C232.423,453.741,226.067,458.018,219.241,461.503z M112.807,448.799l41.334-41.334l-22.384,54.038
		C124.933,458.018,118.577,453.741,112.807,448.799z M89.497,419.242l54.038-22.383l-41.334,41.334
		C97.259,432.423,92.982,426.067,89.497,419.242z M83.744,345.611L137.795,368H79.29C79.888,360.246,81.414,352.748,83.744,345.611z
		 M102.201,312.807l41.334,41.334l-54.038-22.383C92.982,324.933,97.259,318.577,102.201,312.807z M131.758,289.497l22.384,54.038
		l-41.334-41.334C118.577,297.259,124.933,292.982,131.758,289.497z M238.193,302.201l-41.335,41.334l22.384-54.039
		C226.067,292.982,232.423,297.259,238.193,302.201z M261.503,331.758l-54.039,22.383l41.335-41.334
		C253.741,318.577,258.018,324.933,261.503,331.758z M159,375.5c0-9.098,7.402-16.5,16.5-16.5s16.5,7.402,16.5,16.5
		s-7.402,16.5-16.5,16.5S159,384.598,159,375.5z M183,337.794V279.29c7.754,0.599,15.251,2.124,22.388,4.454L183,337.794z
		 M168,337.795l-22.389-54.051c7.137-2.331,14.635-3.856,22.389-4.454V337.795z M79.29,383h58.505l-54.051,22.389
		C81.414,398.252,79.888,390.754,79.29,383z M168,413.205v58.505c-7.754-0.599-15.252-2.124-22.389-4.454L168,413.205z M183,413.206
		l22.388,54.05c-7.137,2.33-14.634,3.855-22.388,4.454V413.206z M213.205,368l54.051-22.389c2.331,7.137,3.856,14.635,4.454,22.389
		H213.205z"/>
</g>
<g>
</g>
<g>
</g>
<g>
</g>
<g>
</g>
<g>
</g>
<g>
</g>
<g>
</g>
<g>
</g>
<g>
</g>
<g>
</g>
<g>
</g>
<g>
</g>
<g>
</g>
<g>
</g>
<g>
</g>
</svg>
